<?xml version="1.0" encoding="UTF-8" standalone="no"?>
<!DOCTYPE svg PUBLIC "-//W3C//DTD SVG 1.1//EN"
 "http://www.w3.org/Graphics/SVG/1.1/DTD/svg11.dtd">
<!-- Generated by graphviz version 2.47.1 (20210417.1919)
 -->
<!-- Pages: 1 -->
<svg width="69pt" height="216pt"
 viewBox="0.00 0.00 69.09 216.30" xmlns="http://www.w3.org/2000/svg" xmlns:xlink="http://www.w3.org/1999/xlink">
<g id="graph0" class="graph" transform="scale(1 1) rotate(0) translate(4 212.3)">
<polygon fill="white" stroke="transparent" points="-4,4 -4,-212.3 65.09,-212.3 65.09,4 -4,4"/>
<!-- fake0 -->
<g id="node1" class="node">
<title>fake0</title>
</g>
<!-- q0 -->
<g id="node2" class="node">
<title>q0</title>
<ellipse fill="none" stroke="black" cx="30.55" cy="-117.3" rx="27" ry="18"/>
<text text-anchor="middle" x="30.55" y="-113.6" font-family="Times New Roman,serif" font-size="14.00">q0</text>
</g>
<!-- fake0&#45;&gt;q0 -->
<g id="edge1" class="edge">
<title>fake0&#45;&gt;q0</title>
<path fill="none" stroke="black" stroke-width="2" d="M30.55,-172.11C30.55,-164.09 30.55,-154.34 30.55,-145.37"/>
<polygon fill="black" stroke="black" stroke-width="2" points="34.05,-145.33 30.55,-135.33 27.05,-145.33 34.05,-145.33"/>
</g>
<!-- q1 -->
<g id="node3" class="node">
<title>q1</title>
<ellipse fill="none" stroke="black" cx="30.55" cy="-24.15" rx="20.27" ry="20.27"/>
<ellipse fill="none" stroke="black" cx="30.55" cy="-24.15" rx="24.3" ry="24.3"/>
<text text-anchor="middle" x="30.55" y="-20.45" font-family="Times New Roman,serif" font-size="14.00">q1</text>
</g>
<!-- q0&#45;&gt;q1 -->
<g id="edge2" class="edge">
<title>q0&#45;&gt;q1</title>
<path fill="none" stroke="black" d="M30.55,-99.15C30.55,-87.73 30.55,-72.34 30.55,-58.55"/>
<polygon fill="black" stroke="black" points="34.05,-58.41 30.55,-48.41 27.05,-58.41 34.05,-58.41"/>
<text text-anchor="middle" x="34.05" y="-70.1" font-family="Times New Roman,serif" font-size="14.00">a</text>
</g>
</g>
</svg>
