<?xml version="1.0" encoding="UTF-8" standalone="no"?>
<!DOCTYPE svg PUBLIC "-//W3C//DTD SVG 1.1//EN"
 "http://www.w3.org/Graphics/SVG/1.1/DTD/svg11.dtd">
<!-- Generated by graphviz version 2.47.1 (20210417.1919)
 -->
<!-- Pages: 1 -->
<svg width="87pt" height="212pt"
 viewBox="0.00 0.00 87.00 212.00" xmlns="http://www.w3.org/2000/svg" xmlns:xlink="http://www.w3.org/1999/xlink">
<g id="graph0" class="graph" transform="scale(1 1) rotate(0) translate(4 208)">
<polygon fill="white" stroke="transparent" points="-4,4 -4,-208 83,-208 83,4 -4,4"/>
<!-- fake -->
<g id="node1" class="node">
<title>fake</title>
</g>
<!-- 0 -->
<g id="node2" class="node">
<title>0</title>
<ellipse fill="none" stroke="black" cx="27" cy="-113" rx="27" ry="18"/>
<text text-anchor="middle" x="27" y="-109.3" font-family="Times New Roman,serif" font-size="14.00">0</text>
</g>
<!-- fake&#45;&gt;0 -->
<g id="edge1" class="edge">
<title>fake&#45;&gt;0</title>
<path fill="none" stroke="black" stroke-width="2" d="M27,-167.81C27,-159.79 27,-150.05 27,-141.07"/>
<polygon fill="black" stroke="black" stroke-width="2" points="30.5,-141.03 27,-131.03 23.5,-141.03 30.5,-141.03"/>
</g>
<!-- 0&#45;&gt;0 -->
<g id="edge5" class="edge">
<title>0&#45;&gt;0</title>
<path fill="none" stroke="black" d="M52.44,-119.69C63.03,-120.15 72,-117.92 72,-113 72,-109.77 68.14,-107.7 62.49,-106.79"/>
<polygon fill="black" stroke="black" points="62.6,-103.29 52.44,-106.31 62.27,-110.28 62.6,-103.29"/>
<text text-anchor="middle" x="75.5" y="-109.3" font-family="Times New Roman,serif" font-size="14.00">a</text>
</g>
<!-- 1 -->
<g id="node3" class="node">
<title>1</title>
<ellipse fill="none" stroke="black" cx="27" cy="-22" rx="18" ry="18"/>
<ellipse fill="none" stroke="black" cx="27" cy="-22" rx="22" ry="22"/>
<text text-anchor="middle" x="27" y="-18.3" font-family="Times New Roman,serif" font-size="14.00">1</text>
</g>
<!-- 0&#45;&gt;1 -->
<g id="edge4" class="edge">
<title>0&#45;&gt;1</title>
<path fill="none" stroke="black" d="M20.11,-95.56C18.04,-89.79 16.03,-83.21 15,-77 13.67,-69.03 14.51,-60.47 16.24,-52.56"/>
<polygon fill="black" stroke="black" points="19.69,-53.22 18.91,-42.65 12.93,-51.39 19.69,-53.22"/>
<text text-anchor="middle" x="19" y="-65.8" font-family="Times New Roman,serif" font-size="14.00">b</text>
</g>
<!-- 1&#45;&gt;0 -->
<g id="edge2" class="edge">
<title>1&#45;&gt;0</title>
<path fill="none" stroke="black" d="M27,-44.19C27,-56.28 27,-71.58 27,-84.58"/>
<polygon fill="black" stroke="black" points="23.5,-84.84 27,-94.84 30.5,-84.84 23.5,-84.84"/>
<text text-anchor="middle" x="31" y="-65.8" font-family="Times New Roman,serif" font-size="14.00">b</text>
</g>
<!-- 1&#45;&gt;1 -->
<g id="edge3" class="edge">
<title>1&#45;&gt;1</title>
<path fill="none" stroke="black" d="M47.58,-30.37C57.84,-31.53 67,-28.74 67,-22 67,-17.68 63.24,-14.99 57.84,-13.91"/>
<polygon fill="black" stroke="black" points="57.67,-10.41 47.58,-13.63 57.48,-17.4 57.67,-10.41"/>
<text text-anchor="middle" x="70.5" y="-18.3" font-family="Times New Roman,serif" font-size="14.00">a</text>
</g>
</g>
</svg>
