<?xml version="1.0" encoding="UTF-8" standalone="no"?>
<!DOCTYPE svg PUBLIC "-//W3C//DTD SVG 1.1//EN"
 "http://www.w3.org/Graphics/SVG/1.1/DTD/svg11.dtd">
<!-- Generated by graphviz version 2.47.1 (20210417.1919)
 -->
<!-- Pages: 1 -->
<svg width="110pt" height="216pt"
 viewBox="0.00 0.00 110.15 216.30" xmlns="http://www.w3.org/2000/svg" xmlns:xlink="http://www.w3.org/1999/xlink">
<g id="graph0" class="graph" transform="scale(1 1) rotate(0) translate(4 212.3)">
<polygon fill="white" stroke="transparent" points="-4,4 -4,-212.3 106.15,-212.3 106.15,4 -4,4"/>
<!-- fake -->
<g id="node1" class="node">
<title>fake</title>
</g>
<!-- q0 -->
<g id="node3" class="node">
<title>q0</title>
<ellipse fill="none" stroke="black" cx="27" cy="-117.3" rx="27" ry="18"/>
<text text-anchor="middle" x="27" y="-113.6" font-family="Times New Roman,serif" font-size="14.00">q0</text>
</g>
<!-- fake&#45;&gt;q0 -->
<g id="edge1" class="edge">
<title>fake&#45;&gt;q0</title>
<path fill="none" stroke="black" stroke-width="2" d="M27,-172.11C27,-164.09 27,-154.34 27,-145.37"/>
<polygon fill="black" stroke="black" stroke-width="2" points="30.5,-145.33 27,-135.33 23.5,-145.33 30.5,-145.33"/>
</g>
<!-- q1 -->
<g id="node2" class="node">
<title>q1</title>
<ellipse fill="none" stroke="black" cx="27" cy="-24.15" rx="20.27" ry="20.27"/>
<ellipse fill="none" stroke="black" cx="27" cy="-24.15" rx="24.3" ry="24.3"/>
<text text-anchor="middle" x="27" y="-20.45" font-family="Times New Roman,serif" font-size="14.00">q1</text>
</g>
<!-- q1&#45;&gt;q1 -->
<g id="edge4" class="edge">
<title>q1&#45;&gt;q1</title>
<path fill="none" stroke="black" d="M50.83,-28.61C60.74,-28.92 69.15,-27.43 69.15,-24.15 69.15,-22.1 65.87,-20.75 60.98,-20.1"/>
<polygon fill="black" stroke="black" points="60.96,-16.6 50.83,-19.69 60.68,-23.59 60.96,-16.6"/>
<text text-anchor="middle" x="72.65" y="-20.45" font-family="Times New Roman,serif" font-size="14.00">a</text>
</g>
<!-- q1&#45;&gt;q1 -->
<g id="edge5" class="edge">
<title>q1&#45;&gt;q1</title>
<path fill="none" stroke="black" d="M50.15,-31.93C68.41,-34.95 87.15,-32.35 87.15,-24.15 87.15,-17.48 74.78,-14.52 60.34,-15.26"/>
<polygon fill="black" stroke="black" points="59.71,-11.81 50.15,-16.36 60.47,-18.77 59.71,-11.81"/>
<text text-anchor="middle" x="91.15" y="-20.45" font-family="Times New Roman,serif" font-size="14.00">b</text>
</g>
<!-- q0&#45;&gt;q1 -->
<g id="edge3" class="edge">
<title>q0&#45;&gt;q1</title>
<path fill="none" stroke="black" d="M27,-99.15C27,-87.73 27,-72.34 27,-58.55"/>
<polygon fill="black" stroke="black" points="30.5,-58.41 27,-48.41 23.5,-58.41 30.5,-58.41"/>
<text text-anchor="middle" x="31" y="-70.1" font-family="Times New Roman,serif" font-size="14.00">b</text>
</g>
<!-- q0&#45;&gt;q0 -->
<g id="edge2" class="edge">
<title>q0&#45;&gt;q0</title>
<path fill="none" stroke="black" d="M52.44,-123.99C63.03,-124.45 72,-122.22 72,-117.3 72,-114.07 68.14,-112 62.49,-111.08"/>
<polygon fill="black" stroke="black" points="62.6,-107.59 52.44,-110.61 62.27,-114.58 62.6,-107.59"/>
<text text-anchor="middle" x="75.5" y="-113.6" font-family="Times New Roman,serif" font-size="14.00">a</text>
</g>
</g>
</svg>
