<?xml version="1.0" encoding="UTF-8" standalone="no"?>
<!DOCTYPE svg PUBLIC "-//W3C//DTD SVG 1.1//EN"
 "http://www.w3.org/Graphics/SVG/1.1/DTD/svg11.dtd">
<!-- Generated by graphviz version 2.47.1 (20210417.1919)
 -->
<!-- Pages: 1 -->
<svg width="160pt" height="316pt"
 viewBox="0.00 0.00 160.00 315.59" xmlns="http://www.w3.org/2000/svg" xmlns:xlink="http://www.w3.org/1999/xlink">
<g id="graph0" class="graph" transform="scale(1 1) rotate(0) translate(4 311.59)">
<polygon fill="white" stroke="transparent" points="-4,4 -4,-311.59 156,-311.59 156,4 -4,4"/>
<!-- fake -->
<g id="node1" class="node">
<title>fake</title>
</g>
<!-- q0 -->
<g id="node5" class="node">
<title>q0</title>
<ellipse fill="none" stroke="black" cx="27" cy="-216.59" rx="27" ry="18"/>
<text text-anchor="middle" x="27" y="-212.89" font-family="Times New Roman,serif" font-size="14.00">q0</text>
</g>
<!-- fake&#45;&gt;q0 -->
<g id="edge1" class="edge">
<title>fake&#45;&gt;q0</title>
<path fill="none" stroke="black" stroke-width="2" d="M27,-271.41C27,-263.38 27,-253.64 27,-244.66"/>
<polygon fill="black" stroke="black" stroke-width="2" points="30.5,-244.62 27,-234.62 23.5,-244.62 30.5,-244.62"/>
</g>
<!-- q2 -->
<g id="node2" class="node">
<title>q2</title>
<ellipse fill="none" stroke="black" cx="69" cy="-24.15" rx="20.27" ry="20.27"/>
<ellipse fill="none" stroke="black" cx="69" cy="-24.15" rx="24.3" ry="24.3"/>
<text text-anchor="middle" x="69" y="-20.45" font-family="Times New Roman,serif" font-size="14.00">q2</text>
</g>
<!-- q2&#45;&gt;q2 -->
<g id="edge6" class="edge">
<title>q2&#45;&gt;q2</title>
<path fill="none" stroke="black" d="M91.55,-32.97C102.01,-33.93 111.15,-30.99 111.15,-24.15 111.15,-19.66 107.21,-16.85 101.55,-15.72"/>
<polygon fill="black" stroke="black" points="101.68,-12.22 91.55,-15.33 101.4,-19.21 101.68,-12.22"/>
<text text-anchor="middle" x="115.15" y="-20.45" font-family="Times New Roman,serif" font-size="14.00">b</text>
</g>
<!-- q1 -->
<g id="node3" class="node">
<title>q1</title>
<ellipse fill="none" stroke="black" cx="39" cy="-123.44" rx="20.27" ry="20.27"/>
<ellipse fill="none" stroke="black" cx="39" cy="-123.44" rx="24.3" ry="24.3"/>
<text text-anchor="middle" x="39" y="-119.74" font-family="Times New Roman,serif" font-size="14.00">q1</text>
</g>
<!-- q2&#45;&gt;q1 -->
<g id="edge7" class="edge">
<title>q2&#45;&gt;q1</title>
<path fill="none" stroke="black" d="M62.08,-47.59C58.19,-60.22 53.26,-76.2 48.96,-90.16"/>
<polygon fill="black" stroke="black" points="45.56,-89.29 45.96,-99.88 52.25,-91.35 45.56,-89.29"/>
<text text-anchor="middle" x="58.5" y="-70.1" font-family="Times New Roman,serif" font-size="14.00">a</text>
</g>
<!-- q1&#45;&gt;q2 -->
<g id="edge5" class="edge">
<title>q1&#45;&gt;q2</title>
<path fill="none" stroke="black" d="M37.54,-99.27C37.57,-88.95 38.56,-76.78 42,-66.3 43.62,-61.35 46,-56.43 48.69,-51.79"/>
<polygon fill="black" stroke="black" points="51.67,-53.63 54.11,-43.32 45.77,-49.86 51.67,-53.63"/>
<text text-anchor="middle" x="45.5" y="-70.1" font-family="Times New Roman,serif" font-size="14.00">a</text>
</g>
<!-- q1&#45;&gt;q1 -->
<g id="edge4" class="edge">
<title>q1&#45;&gt;q1</title>
<path fill="none" stroke="black" d="M61.55,-132.27C72.01,-133.23 81.15,-130.29 81.15,-123.44 81.15,-118.95 77.21,-116.14 71.55,-115.01"/>
<polygon fill="black" stroke="black" points="71.68,-111.52 61.55,-114.62 71.4,-118.51 71.68,-111.52"/>
<text text-anchor="middle" x="85.15" y="-119.74" font-family="Times New Roman,serif" font-size="14.00">b</text>
</g>
<!-- q3 -->
<g id="node4" class="node">
<title>q3</title>
<ellipse fill="none" stroke="black" cx="125" cy="-216.59" rx="27" ry="18"/>
<text text-anchor="middle" x="125" y="-212.89" font-family="Times New Roman,serif" font-size="14.00">q3</text>
</g>
<!-- q3&#45;&gt;q2 -->
<g id="edge9" class="edge">
<title>q3&#45;&gt;q2</title>
<path fill="none" stroke="black" d="M121.83,-198.44C117.41,-175.57 108.74,-133.94 98,-99.3 93.53,-84.88 87.6,-69.28 82.27,-56.12"/>
<polygon fill="black" stroke="black" points="85.39,-54.5 78.34,-46.59 78.92,-57.17 85.39,-54.5"/>
<text text-anchor="middle" x="114" y="-119.74" font-family="Times New Roman,serif" font-size="14.00">b</text>
</g>
<!-- q3&#45;&gt;q1 -->
<g id="edge8" class="edge">
<title>q3&#45;&gt;q1</title>
<path fill="none" stroke="black" d="M111.18,-200.95C98.04,-187.02 78.02,-165.8 62.4,-149.24"/>
<polygon fill="black" stroke="black" points="64.54,-146.41 55.13,-141.54 59.44,-151.21 64.54,-146.41"/>
<text text-anchor="middle" x="92.5" y="-169.39" font-family="Times New Roman,serif" font-size="14.00">a</text>
</g>
<!-- q0&#45;&gt;q1 -->
<g id="edge3" class="edge">
<title>q0&#45;&gt;q1</title>
<path fill="none" stroke="black" d="M29.26,-198.45C30.76,-187.02 32.79,-171.63 34.6,-157.84"/>
<polygon fill="black" stroke="black" points="38.1,-158.08 35.94,-147.71 31.16,-157.16 38.1,-158.08"/>
<text text-anchor="middle" x="37.5" y="-169.39" font-family="Times New Roman,serif" font-size="14.00">a</text>
</g>
<!-- q0&#45;&gt;q0 -->
<g id="edge2" class="edge">
<title>q0&#45;&gt;q0</title>
<path fill="none" stroke="black" d="M52.44,-223.28C63.03,-223.74 72,-221.51 72,-216.59 72,-213.36 68.14,-211.29 62.49,-210.38"/>
<polygon fill="black" stroke="black" points="62.6,-206.88 52.44,-209.9 62.27,-213.87 62.6,-206.88"/>
<text text-anchor="middle" x="76" y="-212.89" font-family="Times New Roman,serif" font-size="14.00">b</text>
</g>
</g>
</svg>
